<svg width="59" height="59" viewBox="0 0 59 59" fill="none" xmlns="http://www.w3.org/2000/svg">
<path fill-rule="evenodd" clip-rule="evenodd" d="M39.3334 22.125C39.3334 24.733 38.2974 27.2341 36.4533 29.0782C34.6092 30.9223 32.108 31.9583 29.5001 31.9583C26.8921 31.9583 24.391 30.9223 22.5469 29.0782C20.7028 27.2341 19.6667 24.733 19.6667 22.125C19.6667 19.517 20.7028 17.0159 22.5469 15.1718C24.391 13.3277 26.8921 12.2917 29.5001 12.2917C32.108 12.2917 34.6092 13.3277 36.4533 15.1718C38.2974 17.0159 39.3334 19.517 39.3334 22.125ZM34.4167 22.125C34.4167 23.429 33.8987 24.6795 32.9767 25.6016C32.0546 26.5237 30.8041 27.0417 29.5001 27.0417C28.1961 27.0417 26.9455 26.5237 26.0235 25.6016C25.1014 24.6795 24.5834 23.429 24.5834 22.125C24.5834 20.821 25.1014 19.5704 26.0235 18.6484C26.9455 17.7263 28.1961 17.2083 29.5001 17.2083C30.8041 17.2083 32.0546 17.7263 32.9767 18.6484C33.8987 19.5704 34.4167 20.821 34.4167 22.125Z" fill="#F8F8F8"/>
<path fill-rule="evenodd" clip-rule="evenodd" d="M29.5 2.45833C14.5657 2.45833 2.45837 14.5656 2.45837 29.5C2.45837 44.4344 14.5657 56.5417 29.5 56.5417C44.4344 56.5417 56.5417 44.4344 56.5417 29.5C56.5417 14.5656 44.4344 2.45833 29.5 2.45833ZM7.37504 29.5C7.37504 34.6379 9.12783 39.3677 12.0655 43.1241C14.1286 40.4147 16.7902 38.2191 19.8423 36.7086C22.8944 35.1981 26.2544 34.4137 29.6598 34.4167C33.0212 34.4135 36.3389 35.1776 39.3602 36.6507C42.3816 38.1239 45.0268 40.2673 47.0943 42.9176C49.2243 40.1239 50.6585 36.8632 51.2781 33.4053C51.8978 29.9473 51.6851 26.3915 50.6577 23.0321C49.6302 19.6726 47.8176 16.6062 45.3698 14.0863C42.9219 11.5665 39.9092 9.66582 36.581 8.54149C33.2527 7.41717 29.7046 7.10156 26.2301 7.62076C22.7557 8.13996 19.4548 9.47906 16.6006 11.5273C13.7464 13.5754 11.421 16.2738 9.81673 19.3992C8.21246 22.5245 7.37548 25.987 7.37504 29.5ZM29.5 51.625C24.421 51.6326 19.4953 49.8853 15.5564 46.6788C17.1418 44.4091 19.2521 42.556 21.7076 41.2771C24.1631 39.9982 26.8912 39.3314 29.6598 39.3333C32.3939 39.3311 35.089 39.9813 37.5214 41.2297C39.9538 42.4782 42.0532 44.289 43.6453 46.5117C39.6758 49.8223 34.6689 51.6322 29.5 51.625Z" fill="#F8F8F8"/>
</svg>
