<svg xmlns="http://www.w3.org/2000/svg" version="1.1" xmlns:xlink="http://www.w3.org/1999/xlink" xmlns:svgjs="http://svgjs.dev/svgjs" width="2000" height="348" viewBox="0 0 2000 348"><g transform="matrix(1,0,0,1,-1.2121212121213603,0.059755062859210284)"><svg viewBox="0 0 396 69" data-background-color="#21232b" preserveAspectRatio="xMidYMid meet" height="348" width="2000" xmlns="http://www.w3.org/2000/svg" xmlns:xlink="http://www.w3.org/1999/xlink"><g id="tight-bounds" transform="matrix(1,0,0,1,0.24000000000003752,-0.011847986601395633)"><svg viewBox="0 0 395.5199999999999 69.0236959732028" height="69.0236959732028" width="395.5199999999999"><g><svg viewBox="0 0 496.5452702994147 86.65399922653371" height="69.0236959732028" width="395.5199999999999"><g transform="matrix(1,0,0,1,101.0252702994147,12.889193413396928)"><svg viewBox="0 0 395.52 60.87561239973986" height="60.87561239973986" width="395.52"><g id="textblocktransform"><svg viewBox="0 0 395.52 60.87561239973986" height="60.87561239973986" width="395.52" id="textblock"><g><svg viewBox="0 0 395.52 60.87561239973986" height="60.87561239973986" width="395.52"><g transform="matrix(1,0,0,1,0,0)"><svg width="395.52" viewBox="2.1 -34.9 230.63 35.5" height="60.87561239973986" data-palette-color="#ffffff"><path d="M18.7 0.6Q2.1 0.6 2.1-17.15L2.1-17.15Q2.1-26.05 6.45-30.48 10.8-34.9 18.7-34.9L18.7-34.9Q23.05-34.9 26.53-33.43 30-31.95 32.02-28.93 34.05-25.9 34.05-21.55L34.05-21.55 26.6-21.55Q26.6-24.9 24.45-26.83 22.3-28.75 18.85-28.75L18.85-28.75Q14.15-28.75 11.85-25.95 9.55-23.15 9.55-17.9L9.55-17.9 9.55-16.4Q9.55-5.55 18.85-5.55L18.85-5.55Q22.5-5.55 24.68-7.45 26.85-9.35 26.85-12.7L26.85-12.7 34.05-12.7Q34.05-8.3 32.05-5.33 30.05-2.35 26.6-0.88 23.15 0.6 18.7 0.6L18.7 0.6ZM51.35 0.6Q44.6 0.6 41.3-2.75 38-6.1 38-13.15L38-13.15Q38-20.2 41.3-23.55 44.6-26.9 51.35-26.9L51.35-26.9Q58.1-26.9 61.42-23.55 64.75-20.2 64.75-13.15L64.75-13.15Q64.75-6.1 61.42-2.75 58.1 0.6 51.35 0.6L51.35 0.6ZM51.35-5Q54.7-5 56.2-6.93 57.7-8.85 57.7-12.75L57.7-12.75 57.7-13.55Q57.7-17.45 56.2-19.38 54.7-21.3 51.35-21.3L51.35-21.3Q48-21.3 46.52-19.38 45.05-17.45 45.05-13.55L45.05-13.55 45.05-12.75Q45.05-8.85 46.52-6.93 48-5 51.35-5L51.35-5ZM70.2 0L70.2-26.3 76.05-26.3 76.55-22.85 76.9-22.85Q80.1-26.9 85.1-26.9L85.1-26.9Q89.15-26.9 91.47-24.7 93.8-22.5 93.8-17.65L93.8-17.65 93.8 0 86.95 0 86.95-16.2Q86.95-18.65 85.8-19.75 84.65-20.85 82.4-20.85L82.4-20.85Q80.1-20.85 78.57-19.23 77.05-17.6 77.05-15.2L77.05-15.2 77.05 0 70.2 0ZM100.74 0L100.74-26.3 106.59-26.3 107.09-22.85 107.44-22.85Q110.64-26.9 115.64-26.9L115.64-26.9Q119.69-26.9 122.02-24.7 124.34-22.5 124.34-17.65L124.34-17.65 124.34 0 117.49 0 117.49-16.2Q117.49-18.65 116.34-19.75 115.19-20.85 112.94-20.85L112.94-20.85Q110.64-20.85 109.12-19.23 107.59-17.6 107.59-15.2L107.59-15.2 107.59 0 100.74 0ZM142.14 0.6Q135.79 0.6 132.67-2.75 129.54-6.1 129.54-13.15L129.54-13.15Q129.54-20.2 132.67-23.55 135.79-26.9 142.14-26.9L142.14-26.9Q147.99-26.9 150.89-23.53 153.79-20.15 153.79-13.15L153.79-13.15 153.79-11.55 136.49-11.55Q136.59-8.05 137.89-6.38 139.19-4.7 142.24-4.7L142.24-4.7Q144.39-4.7 145.72-5.9 147.04-7.1 147.04-9.3L147.04-9.3 153.79-9.3Q153.79-4.35 150.59-1.88 147.39 0.6 142.14 0.6L142.14 0.6ZM136.59-16.1L146.69-16.1Q146.69-21.55 142.14-21.55L142.14-21.55Q139.54-21.55 138.22-20.2 136.89-18.85 136.59-16.1L136.59-16.1ZM169.99 0.6Q163.69 0.6 160.56-2.75 157.44-6.1 157.44-13.15L157.44-13.15Q157.44-20.15 160.56-23.53 163.69-26.9 169.99-26.9L169.99-26.9Q175.24-26.9 178.36-24.23 181.49-21.55 181.49-16.4L181.49-16.4 174.59-16.4Q174.59-18.8 173.34-20.1 172.09-21.4 169.84-21.4L169.84-21.4Q167.04-21.4 165.71-19.43 164.39-17.45 164.39-13.55L164.39-13.55 164.39-12.75Q164.39-8.85 165.76-6.88 167.14-4.9 170.19-4.9L170.19-4.9Q172.34-4.9 173.61-6.23 174.89-7.55 174.89-9.9L174.89-9.9 181.49-9.9Q181.49-4.75 178.39-2.08 175.29 0.6 169.99 0.6L169.99 0.6ZM193.94 0.6Q190.24 0.6 188.64-1.4 187.04-3.4 187.04-6.45L187.04-6.45 187.04-20.7 183.89-20.7 183.89-26.3 187.19-26.3 188.34-33.7 193.89-33.7 193.89-26.3 198.44-26.3 198.44-20.7 193.89-20.7 193.89-7.15Q193.89-5 196.04-5L196.04-5 198.44-5 198.44-0.2Q197.59 0.1 196.31 0.35 195.04 0.6 193.94 0.6L193.94 0.6ZM217.98 0.6Q211.03 0.6 207.18-2.8 203.33-6.2 203.33-12.75L203.33-12.75 203.33-34.3 210.58-34.3 210.58-13.1Q210.58-9.4 212.51-7.48 214.43-5.55 217.98-5.55L217.98-5.55Q221.53-5.55 223.51-7.48 225.48-9.4 225.48-13.1L225.48-13.1 225.48-34.3 232.73-34.3 232.73-12.75Q232.73-6.2 228.86-2.8 224.98 0.6 217.98 0.6L217.98 0.6Z" opacity="1" transform="matrix(1,0,0,1,0,0)" fill="#ffffff" class="wordmark-text-0" data-fill-palette-color="primary" id="text-0"></path></svg></g></svg></g></svg></g></svg></g><g><svg viewBox="0 0 86.65399922653371 86.65399922653371" height="86.65399922653371" width="86.65399922653371"><g><svg xmlns="http://www.w3.org/2000/svg" xmlns:xlink="http://www.w3.org/1999/xlink" version="1.1" x="0" y="0" viewBox="23.833 23.583 52.001000000000005 52.001000000000005" enable-background="new 0 0 100 100" xml:space="preserve" height="86.65399922653371" width="86.65399922653371" class="icon-icon-0" data-fill-palette-color="accent" id="icon-0"><path d="M49.833 23.583c-14.337 0-26 11.664-26 26s11.664 26.001 26 26.001S75.834 63.92 75.834 49.583 64.17 23.583 49.833 23.583zM49.833 67.584c-9.925 0-18-8.075-18-18.001 0-9.925 8.075-18 18-18 9.925 0 18.001 8.075 18.001 18C67.834 59.509 59.758 67.584 49.833 67.584z" fill="#2f84ff" data-fill-palette-color="accent"></path></svg></g></svg></g></svg></g><defs></defs></svg><rect width="395.5199999999999" height="69.0236959732028" fill="none" stroke="none" visibility="hidden"></rect></g></svg></g></svg>